# MagicaVoxel @ Ephtracy

# material
mtllib gun.mtl
usemtl palette

# normals
vn -1 0 0
vn 1 0 0
vn 0 0 1
vn 0 0 -1
vn 0 -1 0
vn 0 1 0

# texcoords
vt 0.216797 0.5
vt 0.314453 0.5
vt 0.439453 0.5
vt 0.974609 0.5

# verts
v -4 4 -11
v -4 4 -15
v -4 5 -9
v -4 5 -11
v -4 6 3
v -4 6 -9
v -4 7 5
v -4 7 3
v -4 8 4
v -4 8 -10
v -4 8 -12
v -4 8 -14
v -4 9 7
v -4 9 5
v -4 9 3
v -4 9 -9
v -4 9 -12
v -4 9 -14
v -4 11 7
v -4 11 5
v -4 11 3
v -4 11 -9
v -4 11 -12
v -4 11 -14
v -4 12 4
v -4 12 -10
v -4 12 -11
v -4 12 -12
v -4 12 -14
v -4 12 -15
v -4 13 5
v -4 13 3
v -4 13 -9
v -4 13 -10
v -4 13 -11
v -4 14 3
v -4 14 -9
v -4 14 -10
v -3 6 6
v -3 6 3
v -3 7 7
v -3 7 6
v -3 7 5
v -3 7 3
v -3 9 8
v -3 9 7
v -3 9 5
v -3 9 3
v -3 9 -9
v -3 9 -12
v -3 9 -14
v -3 11 8
v -3 11 7
v -3 11 5
v -3 11 3
v -3 11 -9
v -3 11 -12
v -3 11 -14
v -3 12 -11
v -3 12 -12
v -3 12 -14
v -3 13 7
v -3 13 6
v -3 13 5
v -3 13 3
v -3 13 -10
v -3 13 -11
v -3 13 -14
v -3 14 6
v -3 14 3
v -3 14 -10
v -3 14 -11
v -2 8 15
v -2 8 10
v -2 8 8
v -2 8 7
v -2 9 14
v -2 9 11
v -2 9 8
v -2 9 7
v -2 11 14
v -2 11 11
v -2 11 8
v -2 11 7
v -2 12 15
v -2 12 10
v -2 12 8
v -2 12 7
v -2 12 -14
v -2 12 -15
v -2 13 -11
v -2 13 -13
v -2 13 -14
v -2 13 -15
v -2 14 -11
v -2 14 -13
v -1 7 8
v -1 7 7
v -1 8 10
v -1 8 8
v -1 8 7
v -1 9 14
v -1 9 11
v -1 11 14
v -1 11 11
v -1 12 15
v -1 12 14
v -1 12 10
v -1 12 8
v -1 12 7
v -1 13 15
v -1 13 14
v -1 13 8
v -1 13 7
v -1 13 2
v -1 13 -8
v -1 13 -13
v -1 13 -14
v -1 14 2
v -1 14 -8
v -1 14 -13
v -1 14 -14
v 3 13 2
v 3 13 -8
v 3 14 2
v 3 14 -8
v -3 13 2
v -3 13 -8
v -3 14 2
v -3 14 -8
v 1 7 8
v 1 7 7
v 1 8 10
v 1 8 8
v 1 8 7
v 1 9 14
v 1 9 11
v 1 11 14
v 1 11 11
v 1 12 15
v 1 12 14
v 1 12 10
v 1 12 8
v 1 12 7
v 1 13 15
v 1 13 14
v 1 13 8
v 1 13 7
v 1 13 2
v 1 13 -8
v 1 13 -13
v 1 13 -14
v 1 14 2
v 1 14 -8
v 1 14 -13
v 1 14 -14
v 2 8 15
v 2 8 10
v 2 8 8
v 2 8 7
v 2 9 14
v 2 9 11
v 2 9 8
v 2 9 7
v 2 11 14
v 2 11 11
v 2 11 8
v 2 11 7
v 2 12 15
v 2 12 10
v 2 12 8
v 2 12 7
v 2 12 -14
v 2 12 -15
v 2 13 -11
v 2 13 -13
v 2 13 -14
v 2 13 -15
v 2 14 -11
v 2 14 -13
v 3 6 6
v 3 6 3
v 3 7 7
v 3 7 6
v 3 7 5
v 3 7 3
v 3 9 8
v 3 9 7
v 3 9 5
v 3 9 3
v 3 9 -9
v 3 9 -12
v 3 9 -14
v 3 11 8
v 3 11 7
v 3 11 5
v 3 11 3
v 3 11 -9
v 3 11 -12
v 3 11 -14
v 3 12 -11
v 3 12 -12
v 3 12 -14
v 3 13 7
v 3 13 6
v 3 13 5
v 3 13 3
v 3 13 -10
v 3 13 -11
v 3 13 -14
v 3 14 6
v 3 14 3
v 3 14 -10
v 3 14 -11
v 4 4 -11
v 4 4 -15
v 4 5 -9
v 4 5 -11
v 4 6 3
v 4 6 -9
v 4 7 5
v 4 7 3
v 4 8 4
v 4 8 -10
v 4 8 -12
v 4 8 -14
v 4 9 7
v 4 9 5
v 4 9 3
v 4 9 -9
v 4 9 -12
v 4 9 -14
v 4 11 7
v 4 11 5
v 4 11 3
v 4 11 -9
v 4 11 -12
v 4 11 -14
v 4 12 4
v 4 12 -10
v 4 12 -11
v 4 12 -12
v 4 12 -14
v 4 12 -15
v 4 13 5
v 4 13 3
v 4 13 -9
v 4 13 -10
v 4 13 -11
v 4 14 3
v 4 14 -9
v 4 14 -10
v -2 8 15
v -2 12 15
v -1 9 15
v -1 11 15
v -1 12 15
v -1 13 15
v 1 9 15
v 1 11 15
v 1 12 15
v 1 13 15
v 2 8 15
v 2 12 15
v -2 9 11
v -2 11 11
v -1 9 11
v -1 11 11
v 1 9 11
v 1 11 11
v 2 9 11
v 2 11 11
v -3 9 8
v -3 11 8
v -2 8 8
v -2 9 8
v -2 11 8
v -2 12 8
v -1 7 8
v -1 8 8
v -1 12 8
v -1 13 8
v 1 7 8
v 1 8 8
v 1 12 8
v 1 13 8
v 2 8 8
v 2 9 8
v 2 11 8
v 2 12 8
v 3 9 8
v 3 11 8
v -4 9 7
v -4 11 7
v -3 7 7
v -3 9 7
v -3 11 7
v -3 13 7
v -2 8 7
v -2 9 7
v -2 11 7
v -2 12 7
v -1 7 7
v -1 8 7
v -1 12 7
v -1 13 7
v 1 7 7
v 1 8 7
v 1 12 7
v 1 13 7
v 2 8 7
v 2 9 7
v 2 11 7
v 2 12 7
v 3 7 7
v 3 9 7
v 3 11 7
v 3 13 7
v 4 9 7
v 4 11 7
v -3 6 6
v -3 7 6
v -3 13 6
v -3 14 6
v 3 6 6
v 3 7 6
v 3 13 6
v 3 14 6
v -4 7 5
v -4 9 5
v -4 11 5
v -4 13 5
v -3 7 5
v -3 9 5
v -3 11 5
v -3 13 5
v 3 7 5
v 3 9 5
v 3 11 5
v 3 13 5
v 4 7 5
v 4 9 5
v 4 11 5
v 4 13 5
v -4 6 3
v -4 7 3
v -4 13 3
v -4 14 3
v -3 6 3
v -3 7 3
v -3 13 3
v -3 14 3
v 3 6 3
v 3 7 3
v 3 13 3
v 3 14 3
v 4 6 3
v 4 7 3
v 4 13 3
v 4 14 3
v -3 13 -8
v -3 14 -8
v -1 13 -8
v -1 14 -8
v 1 13 -8
v 1 14 -8
v 3 13 -8
v 3 14 -8
v -4 5 -9
v -4 6 -9
v -4 9 -9
v -4 11 -9
v -3 9 -9
v -3 11 -9
v 3 9 -9
v 3 11 -9
v 4 5 -9
v 4 6 -9
v 4 9 -9
v 4 11 -9
v -4 4 -11
v -4 5 -11
v 4 4 -11
v 4 5 -11
v -4 9 -14
v -4 11 -14
v -3 9 -14
v -3 11 -14
v 3 9 -14
v 3 11 -14
v 4 9 -14
v 4 11 -14
v -2 9 14
v -2 11 14
v -1 9 14
v -1 11 14
v -1 12 14
v -1 13 14
v 1 9 14
v 1 11 14
v 1 12 14
v 1 13 14
v 2 9 14
v 2 11 14
v -2 8 10
v -2 12 10
v -1 8 10
v -1 12 10
v 1 8 10
v 1 12 10
v 2 8 10
v 2 12 10
v -4 9 3
v -4 11 3
v -3 9 3
v -3 11 3
v 3 9 3
v 3 11 3
v 4 9 3
v 4 11 3
v -3 13 2
v -3 14 2
v -1 13 2
v -1 14 2
v 1 13 2
v 1 14 2
v 3 13 2
v 3 14 2
v -4 13 -10
v -4 14 -10
v -3 13 -10
v -3 14 -10
v 3 13 -10
v 3 14 -10
v 4 13 -10
v 4 14 -10
v -4 12 -11
v -4 13 -11
v -3 12 -11
v -3 13 -11
v -3 14 -11
v -2 13 -11
v -2 14 -11
v 2 13 -11
v 2 14 -11
v 3 12 -11
v 3 13 -11
v 3 14 -11
v 4 12 -11
v 4 13 -11
v -4 9 -12
v -4 11 -12
v -3 9 -12
v -3 11 -12
v 3 9 -12
v 3 11 -12
v 4 9 -12
v 4 11 -12
v -2 13 -13
v -2 14 -13
v -1 13 -13
v -1 14 -13
v 1 13 -13
v 1 14 -13
v 2 13 -13
v 2 14 -13
v -3 12 -14
v -3 13 -14
v -2 12 -14
v -2 13 -14
v -1 13 -14
v -1 14 -14
v 1 13 -14
v 1 14 -14
v 2 12 -14
v 2 13 -14
v 3 12 -14
v 3 13 -14
v -4 4 -15
v -4 12 -15
v -2 12 -15
v -2 13 -15
v 2 12 -15
v 2 13 -15
v 4 4 -15
v 4 12 -15
v -4 4 -11
v 4 4 -11
v -4 4 -15
v 4 4 -15
v -4 5 -9
v 4 5 -9
v -4 5 -11
v 4 5 -11
v -3 6 6
v 3 6 6
v -4 6 3
v -3 6 3
v 3 6 3
v 4 6 3
v -4 6 -9
v 4 6 -9
v -1 7 8
v 1 7 8
v -3 7 7
v -1 7 7
v 1 7 7
v 3 7 7
v -3 7 6
v 3 7 6
v -4 7 5
v -3 7 5
v 3 7 5
v 4 7 5
v -4 7 3
v -3 7 3
v 3 7 3
v 4 7 3
v -2 8 15
v 2 8 15
v -2 8 10
v -1 8 10
v 1 8 10
v 2 8 10
v -2 8 8
v -1 8 8
v 1 8 8
v 2 8 8
v -2 8 7
v -1 8 7
v 1 8 7
v 2 8 7
v -3 9 8
v -2 9 8
v 2 9 8
v 3 9 8
v -4 9 7
v -3 9 7
v -2 9 7
v 2 9 7
v 3 9 7
v 4 9 7
v -4 9 5
v -3 9 5
v 3 9 5
v 4 9 5
v -2 11 14
v -1 11 14
v 1 11 14
v 2 11 14
v -2 11 11
v -1 11 11
v 1 11 11
v 2 11 11
v -4 11 3
v -3 11 3
v 3 11 3
v 4 11 3
v -4 11 -9
v -3 11 -9
v 3 11 -9
v 4 11 -9
v -4 11 -12
v -3 11 -12
v 3 11 -12
v 4 11 -12
v -4 11 -14
v -3 11 -14
v 3 11 -14
v 4 11 -14
v -2 9 14
v -1 9 14
v 1 9 14
v 2 9 14
v -2 9 11
v -1 9 11
v 1 9 11
v 2 9 11
v -4 9 3
v -3 9 3
v 3 9 3
v 4 9 3
v -4 9 -9
v -3 9 -9
v 3 9 -9
v 4 9 -9
v -4 9 -12
v -3 9 -12
v 3 9 -12
v 4 9 -12
v -4 9 -14
v -3 9 -14
v 3 9 -14
v 4 9 -14
v -3 11 8
v -2 11 8
v 2 11 8
v 3 11 8
v -4 11 7
v -3 11 7
v -2 11 7
v 2 11 7
v 3 11 7
v 4 11 7
v -4 11 5
v -3 11 5
v 3 11 5
v 4 11 5
v -2 12 15
v -1 12 15
v 1 12 15
v 2 12 15
v -1 12 14
v 1 12 14
v -2 12 10
v -1 12 10
v 1 12 10
v 2 12 10
v -2 12 8
v -1 12 8
v 1 12 8
v 2 12 8
v -2 12 7
v -1 12 7
v 1 12 7
v 2 12 7
v -4 12 -11
v -3 12 -11
v 3 12 -11
v 4 12 -11
v -4 12 -12
v -3 12 -12
v 3 12 -12
v 4 12 -12
v -4 12 -14
v -3 12 -14
v -2 12 -14
v 2 12 -14
v 3 12 -14
v 4 12 -14
v -4 12 -15
v -2 12 -15
v 2 12 -15
v 4 12 -15
v -1 13 15
v 1 13 15
v -1 13 14
v 1 13 14
v -1 13 8
v 1 13 8
v -3 13 7
v -1 13 7
v 1 13 7
v 3 13 7
v -3 13 6
v 3 13 6
v -4 13 5
v -3 13 5
v 3 13 5
v 4 13 5
v -4 13 3
v -3 13 3
v 3 13 3
v 4 13 3
v -3 13 2
v -1 13 2
v 1 13 2
v 3 13 2
v -3 13 -8
v -1 13 -8
v 1 13 -8
v 3 13 -8
v -4 13 -10
v -3 13 -10
v 3 13 -10
v 4 13 -10
v -4 13 -11
v -3 13 -11
v -2 13 -11
v 2 13 -11
v 3 13 -11
v 4 13 -11
v -2 13 -13
v -1 13 -13
v 1 13 -13
v 2 13 -13
v -3 13 -14
v -2 13 -14
v -1 13 -14
v 1 13 -14
v 2 13 -14
v 3 13 -14
v -2 13 -15
v 2 13 -15
v -3 14 6
v 3 14 6
v -4 14 3
v -3 14 3
v 3 14 3
v 4 14 3
v -3 14 2
v -1 14 2
v 1 14 2
v 3 14 2
v -3 14 -8
v -1 14 -8
v 1 14 -8
v 3 14 -8
v -4 14 -9
v 4 14 -9
v -4 14 -10
v -3 14 -10
v 3 14 -10
v 4 14 -10
v -3 14 -11
v -2 14 -11
v 2 14 -11
v 3 14 -11
v -2 14 -13
v -1 14 -13
v 1 14 -13
v 2 14 -13
v -1 14 -14
v 1 14 -14

# faces
f 4/4/1 2/4/1 1/4/1
f 6/4/1 4/4/1 3/4/1
f 8/4/1 6/4/1 5/4/1
f 9/4/1 8/4/1 7/4/1
f 10/4/1 4/4/1 6/4/1
f 10/4/1 8/4/1 9/4/1
f 10/4/1 6/4/1 8/4/1
f 11/4/1 2/4/1 4/4/1
f 11/4/1 4/4/1 10/4/1
f 12/4/1 2/4/1 11/4/1
f 14/4/1 9/4/1 7/4/1
f 15/3/1 10/3/1 9/3/1
f 16/3/1 10/3/1 15/3/1
f 17/4/1 11/4/1 10/4/1
f 17/3/1 12/3/1 11/3/1
f 18/4/1 2/4/1 12/4/1
f 18/3/1 12/3/1 17/3/1
f 19/4/1 14/4/1 13/4/1
f 20/4/1 9/4/1 14/4/1
f 20/4/1 14/4/1 19/4/1
f 21/3/1 15/3/1 9/3/1
f 22/3/1 10/3/1 16/3/1
f 23/4/1 17/4/1 10/4/1
f 24/4/1 2/4/1 18/4/1
f 25/3/1 22/3/1 21/3/1
f 25/3/1 21/3/1 9/3/1
f 25/4/1 9/4/1 20/4/1
f 26/4/1 23/4/1 10/4/1
f 26/3/1 22/3/1 25/3/1
f 26/3/1 10/3/1 22/3/1
f 27/4/1 23/4/1 26/4/1
f 28/3/1 24/3/1 23/3/1
f 28/4/1 23/4/1 27/4/1
f 29/4/1 2/4/1 24/4/1
f 29/3/1 24/3/1 28/3/1
f 30/4/1 2/4/1 29/4/1
f 31/4/1 25/4/1 20/4/1
f 31/4/1 27/4/1 26/4/1
f 31/4/1 26/4/1 25/4/1
f 32/4/1 27/4/1 31/4/1
f 33/4/1 27/4/1 32/4/1
f 34/4/1 27/4/1 33/4/1
f 35/4/1 27/4/1 34/4/1
f 36/3/1 33/3/1 32/3/1
f 37/4/1 34/4/1 33/4/1
f 37/3/1 33/3/1 36/3/1
f 38/4/1 34/4/1 37/4/1
f 42/4/1 40/4/1 39/4/1
f 43/4/1 40/4/1 42/4/1
f 44/4/1 40/4/1 43/4/1
f 46/4/1 42/4/1 41/4/1
f 46/4/1 43/4/1 42/4/1
f 47/4/1 43/4/1 46/4/1
f 52/4/1 46/4/1 45/4/1
f 53/4/1 46/4/1 52/4/1
f 55/1/1 49/1/1 48/1/1
f 56/1/1 49/1/1 55/1/1
f 57/1/1 51/1/1 50/1/1
f 58/1/1 51/1/1 57/1/1
f 62/4/1 54/4/1 53/4/1
f 63/4/1 54/4/1 62/4/1
f 64/4/1 54/4/1 63/4/1
f 67/4/1 61/4/1 60/4/1
f 67/4/1 60/4/1 59/4/1
f 68/4/1 61/4/1 67/4/1
f 69/4/1 65/4/1 64/4/1
f 69/4/1 64/4/1 63/4/1
f 70/4/1 65/4/1 69/4/1
f 71/4/1 67/4/1 66/4/1
f 72/4/1 67/4/1 71/4/1
f 77/4/1 74/4/1 73/4/1
f 78/4/1 74/4/1 77/4/1
f 79/4/1 76/4/1 75/4/1
f 80/4/1 76/4/1 79/4/1
f 81/4/1 77/4/1 73/4/1
f 82/4/1 74/4/1 78/4/1
f 85/4/1 81/4/1 73/4/1
f 85/4/1 82/4/1 81/4/1
f 86/4/1 74/4/1 82/4/1
f 86/4/1 82/4/1 85/4/1
f 87/4/1 84/4/1 83/4/1
f 88/4/1 84/4/1 87/4/1
f 93/4/1 90/4/1 89/4/1
f 94/4/1 90/4/1 93/4/1
f 95/4/1 92/4/1 91/4/1
f 96/4/1 92/4/1 95/4/1
f 100/4/1 98/4/1 97/4/1
f 101/4/1 98/4/1 100/4/1
f 104/1/1 103/1/1 102/1/1
f 105/1/1 103/1/1 104/1/1
f 108/4/1 100/4/1 99/4/1
f 109/4/1 100/4/1 108/4/1
f 111/4/1 107/4/1 106/4/1
f 112/4/1 107/4/1 111/4/1
f 113/4/1 110/4/1 109/4/1
f 114/4/1 110/4/1 113/4/1
f 119/3/1 116/3/1 115/3/1
f 120/3/1 116/3/1 119/3/1
f 121/4/1 118/4/1 117/4/1
f 122/4/1 118/4/1 121/4/1
f 125/3/1 124/3/1 123/3/1
f 126/3/1 124/3/1 125/3/1
f 127/3/2 128/3/2 129/3/2
f 129/3/2 128/3/2 130/3/2
f 131/4/2 132/4/2 134/4/2
f 134/4/2 132/4/2 135/4/2
f 136/1/2 137/1/2 138/1/2
f 138/1/2 137/1/2 139/1/2
f 133/4/2 134/4/2 142/4/2
f 142/4/2 134/4/2 143/4/2
f 140/4/2 141/4/2 145/4/2
f 145/4/2 141/4/2 146/4/2
f 143/4/2 144/4/2 147/4/2
f 147/4/2 144/4/2 148/4/2
f 149/3/2 150/3/2 153/3/2
f 153/3/2 150/3/2 154/3/2
f 151/4/2 152/4/2 155/4/2
f 155/4/2 152/4/2 156/4/2
f 157/4/2 158/4/2 161/4/2
f 161/4/2 158/4/2 162/4/2
f 159/4/2 160/4/2 163/4/2
f 163/4/2 160/4/2 164/4/2
f 157/4/2 161/4/2 165/4/2
f 162/4/2 158/4/2 166/4/2
f 157/4/2 165/4/2 169/4/2
f 165/4/2 166/4/2 169/4/2
f 166/4/2 158/4/2 170/4/2
f 169/4/2 166/4/2 170/4/2
f 167/4/2 168/4/2 171/4/2
f 171/4/2 168/4/2 172/4/2
f 173/4/2 174/4/2 177/4/2
f 177/4/2 174/4/2 178/4/2
f 175/4/2 176/4/2 179/4/2
f 179/4/2 176/4/2 180/4/2
f 181/4/2 182/4/2 184/4/2
f 184/4/2 182/4/2 185/4/2
f 185/4/2 182/4/2 186/4/2
f 183/4/2 184/4/2 188/4/2
f 184/4/2 185/4/2 188/4/2
f 188/4/2 185/4/2 189/4/2
f 187/4/2 188/4/2 194/4/2
f 194/4/2 188/4/2 195/4/2
f 190/1/2 191/1/2 197/1/2
f 197/1/2 191/1/2 198/1/2
f 192/1/2 193/1/2 199/1/2
f 199/1/2 193/1/2 200/1/2
f 195/4/2 196/4/2 204/4/2
f 204/4/2 196/4/2 205/4/2
f 205/4/2 196/4/2 206/4/2
f 202/4/2 203/4/2 209/4/2
f 201/4/2 202/4/2 209/4/2
f 209/4/2 203/4/2 210/4/2
f 206/4/2 207/4/2 211/4/2
f 205/4/2 206/4/2 211/4/2
f 211/4/2 207/4/2 212/4/2
f 208/4/2 209/4/2 213/4/2
f 213/4/2 209/4/2 214/4/2
f 215/4/2 216/4/2 218/4/2
f 217/4/2 218/4/2 220/4/2
f 219/4/2 220/4/2 222/4/2
f 221/4/2 222/4/2 223/4/2
f 220/4/2 218/4/2 224/4/2
f 223/4/2 222/4/2 224/4/2
f 222/4/2 220/4/2 224/4/2
f 218/4/2 216/4/2 225/4/2
f 224/4/2 218/4/2 225/4/2
f 225/4/2 216/4/2 226/4/2
f 221/4/2 223/4/2 228/4/2
f 223/3/2 224/3/2 229/3/2
f 229/3/2 224/3/2 230/3/2
f 224/4/2 225/4/2 231/4/2
f 225/3/2 226/3/2 231/3/2
f 226/4/2 216/4/2 232/4/2
f 231/3/2 226/3/2 232/3/2
f 227/4/2 228/4/2 233/4/2
f 228/4/2 223/4/2 234/4/2
f 233/4/2 228/4/2 234/4/2
f 223/3/2 229/3/2 235/3/2
f 230/3/2 224/3/2 236/3/2
f 224/4/2 231/4/2 237/4/2
f 232/4/2 216/4/2 238/4/2
f 235/3/2 236/3/2 239/3/2
f 223/3/2 235/3/2 239/3/2
f 234/4/2 223/4/2 239/4/2
f 224/4/2 237/4/2 240/4/2
f 239/3/2 236/3/2 240/3/2
f 236/3/2 224/3/2 240/3/2
f 240/4/2 237/4/2 241/4/2
f 237/3/2 238/3/2 242/3/2
f 241/4/2 237/4/2 242/4/2
f 238/4/2 216/4/2 243/4/2
f 242/3/2 238/3/2 243/3/2
f 243/4/2 216/4/2 244/4/2
f 234/4/2 239/4/2 245/4/2
f 240/4/2 241/4/2 245/4/2
f 239/4/2 240/4/2 245/4/2
f 245/4/2 241/4/2 246/4/2
f 246/4/2 241/4/2 247/4/2
f 247/4/2 241/4/2 248/4/2
f 248/4/2 241/4/2 249/4/2
f 246/3/2 247/3/2 250/3/2
f 247/4/2 248/4/2 251/4/2
f 250/3/2 247/3/2 251/3/2
f 251/4/2 248/4/2 252/4/2
f 255/4/3 254/4/3 253/4/3
f 256/4/3 254/4/3 255/4/3
f 257/4/3 254/4/3 256/4/3
f 259/4/3 255/4/3 253/4/3
f 259/2/3 256/2/3 255/2/3
f 260/4/3 258/4/3 257/4/3
f 260/2/3 256/2/3 259/2/3
f 260/4/3 257/4/3 256/4/3
f 261/4/3 258/4/3 260/4/3
f 262/4/3 258/4/3 261/4/3
f 263/4/3 259/4/3 253/4/3
f 263/4/3 260/4/3 259/4/3
f 263/4/3 261/4/3 260/4/3
f 264/4/3 261/4/3 263/4/3
f 267/4/3 266/4/3 265/4/3
f 268/4/3 266/4/3 267/4/3
f 271/4/3 270/4/3 269/4/3
f 272/4/3 270/4/3 271/4/3
f 276/4/3 274/4/3 273/4/3
f 277/4/3 274/4/3 276/4/3
f 280/4/3 276/4/3 275/4/3
f 280/4/3 278/4/3 277/4/3
f 280/4/3 277/4/3 276/4/3
f 281/4/3 278/4/3 280/4/3
f 283/4/3 280/4/3 279/4/3
f 284/4/3 280/4/3 283/4/3
f 285/4/3 282/4/3 281/4/3
f 286/4/3 282/4/3 285/4/3
f 287/4/3 285/4/3 284/4/3
f 288/4/3 285/4/3 287/4/3
f 289/4/3 285/4/3 288/4/3
f 290/4/3 285/4/3 289/4/3
f 291/4/3 289/4/3 288/4/3
f 292/4/3 289/4/3 291/4/3
f 296/4/3 294/4/3 293/4/3
f 297/4/3 294/4/3 296/4/3
f 299/4/3 296/4/3 295/4/3
f 300/4/3 296/4/3 299/4/3
f 301/4/3 298/4/3 297/4/3
f 302/4/3 298/4/3 301/4/3
f 303/4/3 299/4/3 295/4/3
f 304/4/3 299/4/3 303/4/3
f 305/4/3 298/4/3 302/4/3
f 306/4/3 298/4/3 305/4/3
f 311/4/3 308/4/3 307/4/3
f 314/4/3 310/4/3 309/4/3
f 315/4/3 312/4/3 311/4/3
f 315/4/3 311/4/3 307/4/3
f 316/4/3 312/4/3 315/4/3
f 317/4/3 314/4/3 313/4/3
f 318/4/3 310/4/3 314/4/3
f 318/4/3 314/4/3 317/4/3
f 319/4/3 317/4/3 316/4/3
f 320/4/3 317/4/3 319/4/3
f 325/4/3 322/4/3 321/4/3
f 326/4/3 322/4/3 325/4/3
f 327/4/3 324/4/3 323/4/3
f 328/4/3 324/4/3 327/4/3
f 333/4/3 330/4/3 329/4/3
f 334/4/3 330/4/3 333/4/3
f 335/4/3 332/4/3 331/4/3
f 336/4/3 332/4/3 335/4/3
f 341/4/3 338/4/3 337/4/3
f 342/4/3 338/4/3 341/4/3
f 343/4/3 340/4/3 339/4/3
f 344/4/3 340/4/3 343/4/3
f 349/4/3 346/4/3 345/4/3
f 350/4/3 346/4/3 349/4/3
f 351/3/3 348/3/3 347/3/3
f 352/3/3 348/3/3 351/3/3
f 357/4/3 354/4/3 353/4/3
f 358/4/3 354/4/3 357/4/3
f 359/3/3 356/3/3 355/3/3
f 360/3/3 356/3/3 359/3/3
f 363/3/3 362/3/3 361/3/3
f 364/3/3 362/3/3 363/3/3
f 367/3/3 366/3/3 365/3/3
f 368/3/3 366/3/3 367/3/3
f 373/3/3 372/3/3 371/3/3
f 374/3/3 372/3/3 373/3/3
f 377/4/3 370/4/3 369/4/3
f 378/4/3 370/4/3 377/4/3
f 379/3/3 376/3/3 375/3/3
f 380/3/3 376/3/3 379/3/3
f 383/4/3 382/4/3 381/4/3
f 384/4/3 382/4/3 383/4/3
f 387/4/3 386/4/3 385/4/3
f 388/4/3 386/4/3 387/4/3
f 391/4/3 390/4/3 389/4/3
f 392/4/3 390/4/3 391/4/3
f 393/4/4 394/4/4 395/4/4
f 395/4/4 394/4/4 396/4/4
f 397/4/4 398/4/4 401/4/4
f 401/4/4 398/4/4 402/4/4
f 399/4/4 400/4/4 403/4/4
f 403/4/4 400/4/4 404/4/4
f 405/4/4 406/4/4 407/4/4
f 407/4/4 406/4/4 408/4/4
f 409/4/4 410/4/4 411/4/4
f 411/4/4 410/4/4 412/4/4
f 413/3/4 414/3/4 415/3/4
f 415/3/4 414/3/4 416/3/4
f 417/3/4 418/3/4 419/3/4
f 419/3/4 418/3/4 420/3/4
f 421/3/4 422/3/4 423/3/4
f 423/3/4 422/3/4 424/3/4
f 425/3/4 426/3/4 427/3/4
f 427/3/4 426/3/4 428/3/4
f 429/4/4 430/4/4 431/4/4
f 431/4/4 430/4/4 432/4/4
f 433/4/4 434/4/4 435/4/4
f 435/4/4 434/4/4 436/4/4
f 437/4/4 438/4/4 439/4/4
f 439/4/4 438/4/4 440/4/4
f 440/4/4 441/4/4 442/4/4
f 442/4/4 441/4/4 443/4/4
f 444/4/4 445/4/4 447/4/4
f 447/4/4 445/4/4 448/4/4
f 446/4/4 447/4/4 449/4/4
f 449/4/4 447/4/4 450/4/4
f 451/4/4 452/4/4 453/4/4
f 453/4/4 452/4/4 454/4/4
f 455/4/4 456/4/4 457/4/4
f 457/4/4 456/4/4 458/4/4
f 459/4/4 460/4/4 461/4/4
f 461/4/4 460/4/4 462/4/4
f 463/4/4 464/4/4 465/4/4
f 465/4/4 464/4/4 466/4/4
f 467/4/4 468/4/4 469/4/4
f 469/4/4 468/4/4 470/4/4
f 471/4/4 472/4/4 473/4/4
f 473/4/4 472/4/4 474/4/4
f 475/4/4 476/4/4 477/4/4
f 477/4/4 476/4/4 478/4/4
f 479/4/4 480/4/4 481/4/4
f 479/4/4 481/4/4 483/4/4
f 481/4/4 482/4/4 483/4/4
f 483/4/4 482/4/4 484/4/4
f 479/4/4 483/4/4 485/4/4
f 485/4/4 483/4/4 486/4/4
f 489/4/5 488/4/5 487/4/5
f 490/4/5 488/4/5 489/4/5
f 493/4/5 492/4/5 491/4/5
f 494/4/5 492/4/5 493/4/5
f 498/4/5 496/4/5 495/4/5
f 499/4/5 496/4/5 498/4/5
f 501/4/5 498/4/5 497/4/5
f 501/4/5 500/4/5 499/4/5
f 501/4/5 499/4/5 498/4/5
f 502/4/5 500/4/5 501/4/5
f 506/4/5 504/4/5 503/4/5
f 507/4/5 504/4/5 506/4/5
f 509/4/5 506/4/5 505/4/5
f 509/4/5 508/4/5 507/4/5
f 509/4/5 507/4/5 506/4/5
f 510/4/5 508/4/5 509/4/5
f 515/4/5 512/4/5 511/4/5
f 516/4/5 512/4/5 515/4/5
f 517/4/5 514/4/5 513/4/5
f 518/4/5 514/4/5 517/4/5
f 521/4/5 520/4/5 519/4/5
f 522/4/5 520/4/5 521/4/5
f 523/4/5 520/4/5 522/4/5
f 524/4/5 520/4/5 523/4/5
f 526/4/5 523/4/5 522/4/5
f 527/4/5 523/4/5 526/4/5
f 529/4/5 526/4/5 525/4/5
f 530/4/5 526/4/5 529/4/5
f 531/4/5 528/4/5 527/4/5
f 532/4/5 528/4/5 531/4/5
f 538/4/5 534/4/5 533/4/5
f 539/4/5 534/4/5 538/4/5
f 540/4/5 536/4/5 535/4/5
f 541/4/5 536/4/5 540/4/5
f 543/4/5 538/4/5 537/4/5
f 544/4/5 538/4/5 543/4/5
f 545/4/5 542/4/5 541/4/5
f 546/4/5 542/4/5 545/4/5
f 551/4/5 548/4/5 547/4/5
f 552/4/5 548/4/5 551/4/5
f 553/4/5 550/4/5 549/4/5
f 554/4/5 550/4/5 553/4/5
f 559/3/5 556/3/5 555/3/5
f 560/3/5 556/3/5 559/3/5
f 561/3/5 558/3/5 557/3/5
f 562/3/5 558/3/5 561/3/5
f 567/3/5 564/3/5 563/3/5
f 568/3/5 564/3/5 567/3/5
f 569/3/5 566/3/5 565/3/5
f 570/3/5 566/3/5 569/3/5
f 571/4/6 572/4/6 575/4/6
f 575/4/6 572/4/6 576/4/6
f 573/4/6 574/4/6 577/4/6
f 577/4/6 574/4/6 578/4/6
f 579/3/6 580/3/6 583/3/6
f 583/3/6 580/3/6 584/3/6
f 581/3/6 582/3/6 585/3/6
f 585/3/6 582/3/6 586/3/6
f 587/3/6 588/3/6 591/3/6
f 591/3/6 588/3/6 592/3/6
f 589/3/6 590/3/6 593/3/6
f 593/3/6 590/3/6 594/3/6
f 595/4/6 596/4/6 600/4/6
f 600/4/6 596/4/6 601/4/6
f 597/4/6 598/4/6 602/4/6
f 602/4/6 598/4/6 603/4/6
f 599/4/6 600/4/6 605/4/6
f 605/4/6 600/4/6 606/4/6
f 603/4/6 604/4/6 607/4/6
f 607/4/6 604/4/6 608/4/6
f 609/4/6 610/4/6 613/4/6
f 611/4/6 612/4/6 614/4/6
f 609/4/6 613/4/6 615/4/6
f 613/4/6 614/4/6 615/4/6
f 615/4/6 614/4/6 616/4/6
f 614/4/6 612/4/6 617/4/6
f 616/4/6 614/4/6 617/4/6
f 617/4/6 612/4/6 618/4/6
f 616/4/6 617/4/6 620/4/6
f 620/4/6 617/4/6 621/4/6
f 619/4/6 620/4/6 623/4/6
f 623/4/6 620/4/6 624/4/6
f 621/4/6 622/4/6 625/4/6
f 625/4/6 622/4/6 626/4/6
f 627/4/6 628/4/6 631/4/6
f 631/4/6 628/4/6 632/4/6
f 629/4/6 630/4/6 633/4/6
f 633/4/6 630/4/6 634/4/6
f 631/3/6 632/3/6 635/3/6
f 635/3/6 632/3/6 636/3/6
f 633/3/6 634/3/6 639/3/6
f 639/3/6 634/3/6 640/3/6
f 636/4/6 637/4/6 641/4/6
f 635/4/6 636/4/6 641/4/6
f 641/4/6 637/4/6 642/4/6
f 639/4/6 640/4/6 643/4/6
f 638/4/6 639/4/6 643/4/6
f 643/4/6 640/4/6 644/4/6
f 645/4/6 646/4/6 647/4/6
f 647/4/6 646/4/6 648/4/6
f 649/4/6 650/4/6 652/4/6
f 652/4/6 650/4/6 653/4/6
f 652/4/6 653/4/6 655/4/6
f 653/4/6 654/4/6 655/4/6
f 651/4/6 652/4/6 655/4/6
f 655/4/6 654/4/6 656/4/6
f 657/4/6 658/4/6 661/4/6
f 661/4/6 658/4/6 662/4/6
f 659/4/6 660/4/6 663/4/6
f 663/4/6 660/4/6 664/4/6
f 665/2/6 666/2/6 669/2/6
f 669/2/6 666/2/6 670/2/6
f 667/2/6 668/2/6 671/2/6
f 671/2/6 668/2/6 672/2/6
f 673/4/6 674/4/6 677/4/6
f 677/4/6 674/4/6 678/4/6
f 675/4/6 676/4/6 681/4/6
f 681/4/6 676/4/6 682/4/6
f 678/4/6 679/4/6 683/4/6
f 680/4/6 681/4/6 686/4/6
f 683/4/6 684/4/6 687/4/6
f 678/4/6 683/4/6 687/4/6
f 687/4/6 684/4/6 688/4/6
f 688/4/6 684/4/6 689/4/6
f 685/4/6 686/4/6 690/4/6
f 686/4/6 681/4/6 691/4/6
f 690/4/6 686/4/6 691/4/6
f 691/4/6 681/4/6 692/4/6
f 688/4/6 689/4/6 693/4/6
f 689/4/6 690/4/6 693/4/6
f 690/4/6 691/4/6 693/4/6
f 693/4/6 691/4/6 694/4/6
f 695/4/6 696/4/6 698/4/6
f 698/4/6 696/4/6 699/4/6
f 697/3/6 698/3/6 701/3/6
f 699/3/6 700/3/6 701/3/6
f 698/3/6 699/3/6 701/3/6
f 701/3/6 700/3/6 702/3/6
f 702/3/6 700/3/6 703/3/6
f 703/3/6 700/3/6 704/3/6
f 697/3/6 701/3/6 705/3/6
f 702/3/6 703/3/6 706/3/6
f 706/3/6 703/3/6 707/3/6
f 704/3/6 700/3/6 708/3/6
f 706/3/6 707/3/6 709/3/6
f 707/3/6 708/3/6 709/3/6
f 697/3/6 705/3/6 709/3/6
f 705/3/6 706/3/6 709/3/6
f 708/3/6 700/3/6 710/3/6
f 709/3/6 708/3/6 710/3/6
f 709/4/6 710/4/6 711/4/6
f 711/4/6 710/4/6 712/4/6
f 712/4/6 710/4/6 713/4/6
f 713/4/6 710/4/6 714/4/6
f 712/4/6 713/4/6 715/4/6
f 715/4/6 713/4/6 716/4/6
f 716/4/6 713/4/6 717/4/6
f 717/4/6 713/4/6 718/4/6
f 716/4/6 717/4/6 719/4/6
f 719/4/6 717/4/6 720/4/6
f 720/4/6 717/4/6 721/4/6
f 721/4/6 717/4/6 722/4/6
f 720/4/6 721/4/6 723/4/6
f 723/4/6 721/4/6 724/4/6
