# MagicaVoxel @ Ephtracy

# material
mtllib truck.mtl
usemtl palette

# normals
vn -1 0 0
vn 1 0 0
vn 0 0 1
vn 0 0 -1
vn 0 -1 0
vn 0 1 0

# texcoords
vt 0.130859 0.5
vt 0.205078 0.5
vt 0.314453 0.5
vt 0.564453 0.5
vt 0.900391 0.5
vt 0.939453 0.5
vt 0.958984 0.5
vt 0.962891 0.5
vt 0.966797 0.5
vt 0.970703 0.5
vt 0.986328 0.5
vt 0.994141 0.5

# verts
v -4 0 5
v -4 0 3
v -4 0 -4
v -4 0 -6
v -4 1 6
v -4 1 5
v -4 1 3
v -4 1 2
v -4 1 -3
v -4 1 -4
v -4 1 -6
v -4 1 -7
v -4 1 -9
v -4 2 9
v -4 2 6
v -4 2 -9
v -4 2 -10
v -4 3 9
v -4 3 6
v -4 3 5
v -4 3 3
v -4 3 2
v -4 3 -3
v -4 3 -4
v -4 3 -6
v -4 3 -7
v -4 3 -10
v -4 4 5
v -4 4 3
v -4 4 -4
v -4 4 -6
v -4 4 -9
v -4 4 -10
v -4 5 -9
v -4 5 -10
v -4 6 9
v -4 6 6
v -4 6 3
v -4 6 -0
v -4 6 -2
v -4 6 -9
v -4 6 -10
v -4 8 6
v -4 8 5
v -4 8 3
v -4 9 5
v -4 9 -0
v -4 11 -2
v -4 11 -9
v 2 0 5
v 2 0 3
v 2 0 -4
v 2 0 -6
v 2 1 6
v 2 1 5
v 2 1 3
v 2 1 2
v 2 1 -3
v 2 1 -4
v 2 1 -6
v 2 1 -7
v 2 1 -9
v 2 2 8
v 2 2 6
v 2 2 -9
v 2 3 8
v 2 3 6
v 2 3 5
v 2 3 3
v 2 3 2
v 2 3 -3
v 2 3 -4
v 2 3 -6
v 2 3 -7
v 2 3 -9
v 2 4 8
v 2 4 -0
v 2 5 8
v 2 5 6
v 2 5 5
v 2 6 5
v 2 6 4
v 2 6 3
v 2 6 1
v 2 6 -0
v 2 7 4
v 2 7 3
v 2 8 4
v 2 8 1
v -3 0 5
v -3 0 3
v -3 0 -4
v -3 0 -6
v -3 1 6
v -3 1 5
v -3 1 3
v -3 1 2
v -3 1 -3
v -3 1 -4
v -3 1 -6
v -3 1 -7
v -3 1 -9
v -3 2 8
v -3 2 6
v -3 2 -9
v -3 3 8
v -3 3 6
v -3 3 5
v -3 3 3
v -3 3 2
v -3 3 -3
v -3 3 -4
v -3 3 -6
v -3 3 -7
v -3 3 -9
v -3 4 8
v -3 4 -0
v -3 5 8
v -3 5 6
v -3 5 5
v -3 6 5
v -3 6 4
v -3 6 3
v -3 6 1
v -3 6 -0
v -3 7 4
v -3 7 3
v -3 8 4
v -3 8 3
v -3 8 1
v 3 0 5
v 3 0 3
v 3 0 -4
v 3 0 -6
v 3 1 6
v 3 1 5
v 3 1 3
v 3 1 2
v 3 1 -3
v 3 1 -4
v 3 1 -6
v 3 1 -7
v 3 1 -9
v 3 2 9
v 3 2 6
v 3 2 -9
v 3 2 -10
v 3 3 9
v 3 3 6
v 3 3 5
v 3 3 3
v 3 3 2
v 3 3 -3
v 3 3 -4
v 3 3 -6
v 3 3 -7
v 3 3 -10
v 3 4 5
v 3 4 3
v 3 4 -4
v 3 4 -6
v 3 4 -9
v 3 4 -10
v 3 5 -9
v 3 5 -10
v 3 6 9
v 3 6 6
v 3 6 4
v 3 6 -0
v 3 6 -2
v 3 6 -9
v 3 6 -10
v 3 8 6
v 3 8 5
v 3 8 4
v 3 9 5
v 3 9 -0
v 3 11 -2
v 3 11 -9
v -4 2 9
v -4 3 9
v -4 6 9
v -3 4 9
v -3 5 9
v -2 4 9
v -2 5 9
v -1 4 9
v -1 5 9
v 0 4 9
v 0 5 9
v 1 4 9
v 1 5 9
v 2 4 9
v 2 5 9
v 3 2 9
v 3 3 9
v 3 6 9
v -4 1 6
v -4 2 6
v -4 6 6
v -4 8 6
v -3 1 6
v -3 2 6
v 2 1 6
v 2 2 6
v 3 1 6
v 3 2 6
v 3 6 6
v 3 8 6
v -4 0 5
v -4 1 5
v -4 8 5
v -4 9 5
v -3 0 5
v -3 1 5
v 2 0 5
v 2 1 5
v 3 0 5
v 3 1 5
v 3 8 5
v 3 9 5
v -3 6 1
v -3 8 1
v 2 6 1
v 2 8 1
v -3 4 -0
v -3 6 -0
v 2 4 -0
v 2 6 -0
v -4 6 -2
v -4 11 -2
v 3 6 -2
v 3 11 -2
v -4 0 -4
v -4 1 -4
v -3 0 -4
v -3 1 -4
v 2 0 -4
v 2 1 -4
v 3 0 -4
v 3 1 -4
v -3 2 -9
v -3 3 -9
v 2 2 -9
v 2 3 -9
v -3 2 8
v -3 3 8
v -3 4 8
v -3 5 8
v -2 4 8
v -2 5 8
v -1 4 8
v -1 5 8
v 0 4 8
v 0 5 8
v 1 4 8
v 1 5 8
v 2 2 8
v 2 3 8
v 2 4 8
v 2 5 8
v -3 5 5
v -3 6 5
v 2 5 5
v 2 6 5
v -3 7 4
v -3 8 4
v 2 7 4
v 2 8 4
v -4 0 3
v -4 1 3
v -3 0 3
v -3 1 3
v -3 6 3
v -3 7 3
v 2 0 3
v 2 1 3
v 2 6 3
v 2 7 3
v 3 0 3
v 3 1 3
v -4 6 -0
v -4 9 -0
v 3 6 -0
v 3 9 -0
v -4 0 -6
v -4 1 -6
v -3 0 -6
v -3 1 -6
v 2 0 -6
v 2 1 -6
v 3 0 -6
v 3 1 -6
v -4 1 -9
v -4 2 -9
v -4 6 -9
v -4 11 -9
v -3 1 -9
v -3 2 -9
v 2 1 -9
v 2 2 -9
v 3 1 -9
v 3 2 -9
v 3 6 -9
v 3 11 -9
v -4 2 -10
v -4 3 -10
v -4 4 -10
v -4 5 -10
v -4 6 -10
v -3 4 -10
v -3 5 -10
v -2 3 -10
v -2 4 -10
v 1 3 -10
v 1 4 -10
v 2 4 -10
v 2 5 -10
v 3 2 -10
v 3 3 -10
v 3 4 -10
v 3 5 -10
v 3 6 -10
v -4 0 5
v -3 0 5
v 2 0 5
v 3 0 5
v -4 0 3
v -3 0 3
v 2 0 3
v 3 0 3
v -4 0 -4
v -3 0 -4
v 2 0 -4
v 3 0 -4
v -4 0 -6
v -3 0 -6
v 2 0 -6
v 3 0 -6
v -4 1 6
v -3 1 6
v 2 1 6
v 3 1 6
v -4 1 5
v -3 1 5
v 2 1 5
v 3 1 5
v -4 1 3
v -3 1 3
v 2 1 3
v 3 1 3
v -4 1 2
v -3 1 2
v 2 1 2
v 3 1 2
v -4 1 -3
v -3 1 -3
v 2 1 -3
v 3 1 -3
v -4 1 -4
v -3 1 -4
v 2 1 -4
v 3 1 -4
v -4 1 -6
v -3 1 -6
v 2 1 -6
v 3 1 -6
v -4 1 -7
v -3 1 -7
v 2 1 -7
v 3 1 -7
v -4 1 -9
v -3 1 -9
v 2 1 -9
v 3 1 -9
v -4 2 9
v 3 2 9
v -3 2 8
v 2 2 8
v -4 2 6
v -3 2 6
v 2 2 6
v 3 2 6
v -4 2 -9
v -3 2 -9
v 2 2 -9
v 3 2 -9
v -4 2 -10
v 3 2 -10
v -3 3 8
v 2 3 8
v -3 3 6
v 2 3 6
v -3 3 5
v 2 3 5
v -3 3 3
v 2 3 3
v -3 3 2
v 2 3 2
v -3 3 -3
v 2 3 -3
v -3 3 -4
v 2 3 -4
v -3 3 -6
v 2 3 -6
v -3 3 -7
v 2 3 -7
v -3 3 -9
v 2 3 -9
v -3 5 8
v -2 5 8
v -1 5 8
v 0 5 8
v 1 5 8
v 2 5 8
v -3 5 6
v 2 5 6
v -3 5 5
v 2 5 5
v -3 6 5
v 2 6 5
v -3 6 4
v 2 6 4
v -3 6 3
v 2 6 3
v -3 6 1
v 2 6 1
v -3 6 -0
v 2 6 -0
v -3 8 4
v 2 8 4
v -3 8 3
v -3 8 1
v 2 8 1
v -3 4 8
v -2 4 8
v -1 4 8
v 0 4 8
v 1 4 8
v 2 4 8
v -3 4 -0
v 2 4 -0
v -4 6 9
v 3 6 9
v -4 6 6
v 3 6 6
v -4 6 -0
v 3 6 -0
v -4 6 -2
v 3 6 -2
v -4 6 -9
v 3 6 -9
v -4 6 -10
v 3 6 -10
v -3 7 4
v 2 7 4
v -3 7 3
v 2 7 3
v -4 8 6
v 3 8 6
v -4 8 5
v 3 8 5
v -4 9 5
v 3 9 5
v -4 9 -0
v 3 9 -0
v -4 11 -2
v 3 11 -2
v -4 11 -9
v 3 11 -9

# faces
f 6/11/1 2/11/1 1/11/1
f 7/11/1 2/11/1 6/11/1
f 10/11/1 4/11/1 3/11/1
f 11/11/1 4/11/1 10/11/1
f 15/11/1 6/11/1 5/11/1
f 16/12/1 13/12/1 12/12/1
f 18/12/1 15/12/1 14/12/1
f 19/11/1 6/11/1 15/11/1
f 19/12/1 15/12/1 18/12/1
f 20/10/1 7/10/1 6/10/1
f 20/11/1 6/11/1 19/11/1
f 21/11/1 8/11/1 7/11/1
f 21/10/1 7/10/1 20/10/1
f 22/12/1 9/12/1 8/12/1
f 22/11/1 8/11/1 21/11/1
f 23/11/1 10/11/1 9/11/1
f 23/12/1 9/12/1 22/12/1
f 24/10/1 11/10/1 10/10/1
f 24/11/1 10/11/1 23/11/1
f 25/11/1 12/11/1 11/11/1
f 25/10/1 11/10/1 24/10/1
f 26/12/1 17/12/1 16/12/1
f 26/11/1 12/11/1 25/11/1
f 26/12/1 16/12/1 12/12/1
f 27/12/1 17/12/1 26/12/1
f 28/11/1 21/11/1 20/11/1
f 28/1/1 19/1/1 18/1/1
f 28/1/1 20/1/1 19/1/1
f 29/1/1 22/1/1 21/1/1
f 29/11/1 21/11/1 28/11/1
f 29/1/1 23/1/1 22/1/1
f 29/1/1 24/1/1 23/1/1
f 30/11/1 25/11/1 24/11/1
f 30/1/1 24/1/1 29/1/1
f 31/1/1 27/1/1 26/1/1
f 31/11/1 25/11/1 30/11/1
f 31/1/1 26/1/1 25/1/1
f 32/1/1 27/1/1 31/1/1
f 33/1/1 27/1/1 32/1/1
f 34/1/1 29/1/1 28/1/1
f 34/1/1 30/1/1 29/1/1
f 34/6/1 33/6/1 32/6/1
f 34/1/1 32/1/1 31/1/1
f 34/1/1 31/1/1 30/1/1
f 35/6/1 33/6/1 34/6/1
f 36/1/1 28/1/1 18/1/1
f 36/1/1 34/1/1 28/1/1
f 36/1/1 35/1/1 34/1/1
f 37/1/1 35/1/1 36/1/1
f 38/1/1 35/1/1 37/1/1
f 39/1/1 35/1/1 38/1/1
f 40/1/1 35/1/1 39/1/1
f 41/1/1 35/1/1 40/1/1
f 42/1/1 35/1/1 41/1/1
f 43/2/1 38/2/1 37/2/1
f 44/2/1 38/2/1 43/2/1
f 45/1/1 39/1/1 38/1/1
f 45/2/1 38/2/1 44/2/1
f 46/1/1 45/1/1 44/1/1
f 47/1/1 39/1/1 45/1/1
f 47/1/1 45/1/1 46/1/1
f 48/3/1 41/3/1 40/3/1
f 49/3/1 41/3/1 48/3/1
f 55/11/1 51/11/1 50/11/1
f 56/11/1 51/11/1 55/11/1
f 59/11/1 53/11/1 52/11/1
f 60/11/1 53/11/1 59/11/1
f 64/11/1 55/11/1 54/11/1
f 65/12/1 62/12/1 61/12/1
f 66/12/1 64/12/1 63/12/1
f 67/11/1 55/11/1 64/11/1
f 67/12/1 64/12/1 66/12/1
f 68/10/1 56/10/1 55/10/1
f 68/11/1 55/11/1 67/11/1
f 69/11/1 57/11/1 56/11/1
f 69/10/1 56/10/1 68/10/1
f 70/12/1 58/12/1 57/12/1
f 70/11/1 57/11/1 69/11/1
f 71/11/1 59/11/1 58/11/1
f 71/12/1 58/12/1 70/12/1
f 72/10/1 60/10/1 59/10/1
f 72/11/1 59/11/1 71/11/1
f 73/11/1 61/11/1 60/11/1
f 73/10/1 60/10/1 72/10/1
f 74/12/1 65/12/1 61/12/1
f 74/11/1 61/11/1 73/11/1
f 75/12/1 65/12/1 74/12/1
f 78/1/1 77/1/1 76/1/1
f 79/1/1 77/1/1 78/1/1
f 80/1/1 77/1/1 79/1/1
f 81/1/1 77/1/1 80/1/1
f 82/1/1 77/1/1 81/1/1
f 83/1/1 77/1/1 82/1/1
f 84/1/1 77/1/1 83/1/1
f 85/1/1 77/1/1 84/1/1
f 87/1/1 84/1/1 83/1/1
f 88/1/1 87/1/1 86/1/1
f 89/1/1 84/1/1 87/1/1
f 89/1/1 87/1/1 88/1/1
f 90/11/2 91/11/2 95/11/2
f 95/11/2 91/11/2 96/11/2
f 92/11/2 93/11/2 99/11/2
f 99/11/2 93/11/2 100/11/2
f 94/11/2 95/11/2 104/11/2
f 101/12/2 102/12/2 105/12/2
f 103/12/2 104/12/2 106/12/2
f 104/11/2 95/11/2 107/11/2
f 106/12/2 104/12/2 107/12/2
f 95/10/2 96/10/2 108/10/2
f 107/11/2 95/11/2 108/11/2
f 96/11/2 97/11/2 109/11/2
f 108/10/2 96/10/2 109/10/2
f 97/12/2 98/12/2 110/12/2
f 109/11/2 97/11/2 110/11/2
f 98/11/2 99/11/2 111/11/2
f 110/12/2 98/12/2 111/12/2
f 99/10/2 100/10/2 112/10/2
f 111/11/2 99/11/2 112/11/2
f 100/11/2 101/11/2 113/11/2
f 112/10/2 100/10/2 113/10/2
f 101/12/2 105/12/2 114/12/2
f 113/11/2 101/11/2 114/11/2
f 114/12/2 105/12/2 115/12/2
f 116/1/2 117/1/2 118/1/2
f 118/1/2 117/1/2 119/1/2
f 119/1/2 117/1/2 120/1/2
f 120/1/2 117/1/2 121/1/2
f 121/1/2 117/1/2 122/1/2
f 122/1/2 117/1/2 123/1/2
f 123/1/2 117/1/2 124/1/2
f 124/1/2 117/1/2 125/1/2
f 123/1/2 124/1/2 127/1/2
f 126/2/2 127/2/2 128/2/2
f 127/1/2 124/1/2 129/1/2
f 128/2/2 127/2/2 129/2/2
f 129/1/2 124/1/2 130/1/2
f 131/11/2 132/11/2 136/11/2
f 136/11/2 132/11/2 137/11/2
f 133/11/2 134/11/2 140/11/2
f 140/11/2 134/11/2 141/11/2
f 135/11/2 136/11/2 145/11/2
f 142/12/2 143/12/2 146/12/2
f 144/12/2 145/12/2 148/12/2
f 145/11/2 136/11/2 149/11/2
f 148/12/2 145/12/2 149/12/2
f 136/10/2 137/10/2 150/10/2
f 149/11/2 136/11/2 150/11/2
f 137/11/2 138/11/2 151/11/2
f 150/10/2 137/10/2 151/10/2
f 138/12/2 139/12/2 152/12/2
f 151/11/2 138/11/2 152/11/2
f 139/11/2 140/11/2 153/11/2
f 152/12/2 139/12/2 153/12/2
f 140/10/2 141/10/2 154/10/2
f 153/11/2 140/11/2 154/11/2
f 141/11/2 142/11/2 155/11/2
f 154/10/2 141/10/2 155/10/2
f 146/12/2 147/12/2 156/12/2
f 155/11/2 142/11/2 156/11/2
f 142/12/2 146/12/2 156/12/2
f 156/12/2 147/12/2 157/12/2
f 150/11/2 151/11/2 158/11/2
f 148/1/2 149/1/2 158/1/2
f 149/1/2 150/1/2 158/1/2
f 151/1/2 152/1/2 159/1/2
f 158/11/2 151/11/2 159/11/2
f 152/1/2 153/1/2 159/1/2
f 153/1/2 154/1/2 159/1/2
f 154/11/2 155/11/2 160/11/2
f 159/1/2 154/1/2 160/1/2
f 156/1/2 157/1/2 161/1/2
f 160/11/2 155/11/2 161/11/2
f 155/1/2 156/1/2 161/1/2
f 161/1/2 157/1/2 162/1/2
f 162/1/2 157/1/2 163/1/2
f 158/1/2 159/1/2 164/1/2
f 159/1/2 160/1/2 164/1/2
f 162/6/2 163/6/2 164/6/2
f 161/1/2 162/1/2 164/1/2
f 160/1/2 161/1/2 164/1/2
f 164/6/2 163/6/2 165/6/2
f 148/1/2 158/1/2 166/1/2
f 158/1/2 164/1/2 166/1/2
f 164/1/2 165/1/2 166/1/2
f 166/1/2 165/1/2 167/1/2
f 167/1/2 165/1/2 168/1/2
f 168/1/2 165/1/2 169/1/2
f 169/1/2 165/1/2 170/1/2
f 170/1/2 165/1/2 171/1/2
f 171/1/2 165/1/2 172/1/2
f 167/2/2 168/2/2 173/2/2
f 173/2/2 168/2/2 174/2/2
f 168/1/2 169/1/2 175/1/2
f 174/2/2 168/2/2 175/2/2
f 174/1/2 175/1/2 176/1/2
f 175/1/2 169/1/2 177/1/2
f 176/1/2 175/1/2 177/1/2
f 170/3/2 171/3/2 178/3/2
f 178/3/2 171/3/2 179/3/2
f 183/1/3 182/1/3 181/1/3
f 184/1/3 182/1/3 183/1/3
f 185/1/3 183/1/3 181/1/3
f 185/9/3 184/9/3 183/9/3
f 186/1/3 182/1/3 184/1/3
f 186/9/3 184/9/3 185/9/3
f 187/1/3 185/1/3 181/1/3
f 187/12/3 186/12/3 185/12/3
f 188/1/3 182/1/3 186/1/3
f 188/12/3 186/12/3 187/12/3
f 189/1/3 187/1/3 181/1/3
f 189/8/3 188/8/3 187/8/3
f 190/1/3 182/1/3 188/1/3
f 190/8/3 188/8/3 189/8/3
f 191/1/3 189/1/3 181/1/3
f 191/12/3 190/12/3 189/12/3
f 192/1/3 182/1/3 190/1/3
f 192/12/3 190/12/3 191/12/3
f 193/1/3 191/1/3 181/1/3
f 193/8/3 192/8/3 191/8/3
f 194/1/3 182/1/3 192/1/3
f 194/8/3 192/8/3 193/8/3
f 195/12/3 181/12/3 180/12/3
f 196/1/3 193/1/3 181/1/3
f 196/12/3 181/12/3 195/12/3
f 196/1/3 194/1/3 193/1/3
f 197/1/3 182/1/3 194/1/3
f 197/1/3 194/1/3 196/1/3
f 202/11/3 199/11/3 198/11/3
f 203/11/3 199/11/3 202/11/3
f 206/11/3 205/11/3 204/11/3
f 207/11/3 205/11/3 206/11/3
f 208/2/3 201/2/3 200/2/3
f 209/2/3 201/2/3 208/2/3
f 214/11/3 211/11/3 210/11/3
f 215/11/3 211/11/3 214/11/3
f 218/11/3 217/11/3 216/11/3
f 219/11/3 217/11/3 218/11/3
f 220/1/3 213/1/3 212/1/3
f 221/1/3 213/1/3 220/1/3
f 224/1/3 223/1/3 222/1/3
f 225/1/3 223/1/3 224/1/3
f 228/1/3 227/1/3 226/1/3
f 229/1/3 227/1/3 228/1/3
f 232/3/3 231/3/3 230/3/3
f 233/3/3 231/3/3 232/3/3
f 236/11/3 235/11/3 234/11/3
f 237/11/3 235/11/3 236/11/3
f 240/11/3 239/11/3 238/11/3
f 241/11/3 239/11/3 240/11/3
f 244/12/3 243/12/3 242/12/3
f 245/12/3 243/12/3 244/12/3
f 248/9/4 249/9/4 250/9/4
f 250/9/4 249/9/4 251/9/4
f 250/12/4 251/12/4 252/12/4
f 252/12/4 251/12/4 253/12/4
f 252/8/4 253/8/4 254/8/4
f 254/8/4 253/8/4 255/8/4
f 254/12/4 255/12/4 256/12/4
f 256/12/4 255/12/4 257/12/4
f 246/12/4 247/12/4 258/12/4
f 258/12/4 247/12/4 259/12/4
f 256/8/4 257/8/4 260/8/4
f 260/8/4 257/8/4 261/8/4
f 262/5/4 263/5/4 264/5/4
f 264/5/4 263/5/4 265/5/4
f 266/5/4 267/5/4 268/5/4
f 268/5/4 267/5/4 269/5/4
f 270/11/4 271/11/4 272/11/4
f 272/11/4 271/11/4 273/11/4
f 274/2/4 275/2/4 278/2/4
f 278/2/4 275/2/4 279/2/4
f 276/11/4 277/11/4 280/11/4
f 280/11/4 277/11/4 281/11/4
f 282/1/4 283/1/4 284/1/4
f 284/1/4 283/1/4 285/1/4
f 286/11/4 287/11/4 288/11/4
f 288/11/4 287/11/4 289/11/4
f 290/11/4 291/11/4 292/11/4
f 292/11/4 291/11/4 293/11/4
f 294/12/4 295/12/4 298/12/4
f 298/12/4 295/12/4 299/12/4
f 300/12/4 301/12/4 302/12/4
f 302/12/4 301/12/4 303/12/4
f 296/3/4 297/3/4 304/3/4
f 304/3/4 297/3/4 305/3/4
f 307/1/4 308/1/4 311/1/4
f 308/6/4 309/6/4 311/6/4
f 309/1/4 310/1/4 312/1/4
f 311/6/4 309/6/4 312/6/4
f 306/12/4 307/12/4 313/12/4
f 307/1/4 311/1/4 313/1/4
f 311/1/4 312/1/4 313/1/4
f 313/1/4 312/1/4 314/1/4
f 306/12/4 313/12/4 315/12/4
f 313/7/4 314/7/4 315/7/4
f 314/1/4 312/1/4 316/1/4
f 315/7/4 314/7/4 316/7/4
f 315/1/4 316/1/4 317/1/4
f 316/1/4 312/1/4 317/1/4
f 312/1/4 310/1/4 318/1/4
f 317/1/4 312/1/4 318/1/4
f 306/12/4 315/12/4 319/12/4
f 315/1/4 317/1/4 320/1/4
f 319/12/4 315/12/4 320/12/4
f 317/6/4 318/6/4 321/6/4
f 320/1/4 317/1/4 321/1/4
f 318/1/4 310/1/4 322/1/4
f 321/6/4 318/6/4 322/6/4
f 322/1/4 310/1/4 323/1/4
f 328/11/5 325/11/5 324/11/5
f 329/11/5 325/11/5 328/11/5
f 330/11/5 327/11/5 326/11/5
f 331/11/5 327/11/5 330/11/5
f 336/11/5 333/11/5 332/11/5
f 337/11/5 333/11/5 336/11/5
f 338/11/5 335/11/5 334/11/5
f 339/11/5 335/11/5 338/11/5
f 344/11/5 341/11/5 340/11/5
f 345/11/5 341/11/5 344/11/5
f 346/11/5 343/11/5 342/11/5
f 347/11/5 343/11/5 346/11/5
f 352/11/5 349/11/5 348/11/5
f 353/11/5 349/11/5 352/11/5
f 354/11/5 351/11/5 350/11/5
f 355/11/5 351/11/5 354/11/5
f 356/12/5 353/12/5 352/12/5
f 357/12/5 353/12/5 356/12/5
f 358/12/5 355/12/5 354/12/5
f 359/12/5 355/12/5 358/12/5
f 360/11/5 357/11/5 356/11/5
f 361/11/5 357/11/5 360/11/5
f 362/11/5 359/11/5 358/11/5
f 363/11/5 359/11/5 362/11/5
f 368/11/5 365/11/5 364/11/5
f 369/11/5 365/11/5 368/11/5
f 370/11/5 367/11/5 366/11/5
f 371/11/5 367/11/5 370/11/5
f 372/12/5 369/12/5 368/12/5
f 373/12/5 369/12/5 372/12/5
f 374/12/5 371/12/5 370/12/5
f 375/12/5 371/12/5 374/12/5
f 378/12/5 377/12/5 376/12/5
f 379/12/5 377/12/5 378/12/5
f 380/12/5 378/12/5 376/12/5
f 381/12/5 378/12/5 380/12/5
f 382/12/5 377/12/5 379/12/5
f 383/12/5 377/12/5 382/12/5
f 388/12/5 385/12/5 384/12/5
f 388/12/5 387/12/5 386/12/5
f 388/12/5 386/12/5 385/12/5
f 389/12/5 387/12/5 388/12/5
f 392/12/5 391/12/5 390/12/5
f 393/12/5 391/12/5 392/12/5
f 394/12/5 393/12/5 392/12/5
f 395/12/5 393/12/5 394/12/5
f 396/12/5 395/12/5 394/12/5
f 397/12/5 395/12/5 396/12/5
f 398/12/5 397/12/5 396/12/5
f 399/12/5 397/12/5 398/12/5
f 400/12/5 399/12/5 398/12/5
f 401/12/5 399/12/5 400/12/5
f 402/12/5 401/12/5 400/12/5
f 403/12/5 401/12/5 402/12/5
f 404/12/5 403/12/5 402/12/5
f 405/12/5 403/12/5 404/12/5
f 406/12/5 405/12/5 404/12/5
f 407/12/5 405/12/5 406/12/5
f 408/12/5 407/12/5 406/12/5
f 409/12/5 407/12/5 408/12/5
f 416/1/5 411/1/5 410/1/5
f 416/1/5 415/1/5 414/1/5
f 416/1/5 414/1/5 413/1/5
f 416/1/5 413/1/5 412/1/5
f 416/1/5 412/1/5 411/1/5
f 417/1/5 415/1/5 416/1/5
f 418/5/5 417/5/5 416/5/5
f 419/5/5 417/5/5 418/5/5
f 422/4/5 421/4/5 420/4/5
f 423/4/5 421/4/5 422/4/5
f 424/2/5 423/2/5 422/2/5
f 425/2/5 423/2/5 424/2/5
f 428/1/5 427/1/5 426/1/5
f 429/1/5 427/1/5 428/1/5
f 432/1/5 431/1/5 430/1/5
f 433/1/5 431/1/5 432/1/5
f 434/1/5 431/1/5 433/1/5
f 435/12/6 436/12/6 441/12/6
f 439/12/6 440/12/6 441/12/6
f 438/12/6 439/12/6 441/12/6
f 437/12/6 438/12/6 441/12/6
f 436/12/6 437/12/6 441/12/6
f 441/12/6 440/12/6 442/12/6
f 443/1/6 444/1/6 445/1/6
f 445/1/6 444/1/6 446/1/6
f 447/1/6 448/1/6 449/1/6
f 449/1/6 448/1/6 450/1/6
f 451/1/6 452/1/6 453/1/6
f 453/1/6 452/1/6 454/1/6
f 455/2/6 456/2/6 457/2/6
f 457/2/6 456/2/6 458/2/6
f 459/2/6 460/2/6 461/2/6
f 461/2/6 460/2/6 462/2/6
f 463/1/6 464/1/6 465/1/6
f 465/1/6 464/1/6 466/1/6
f 467/3/6 468/3/6 469/3/6
f 469/3/6 468/3/6 470/3/6
